<svg enable-background="new 0 0 128 128" viewBox="0 0 128 128" xmlns="http://www.w3.org/2000/svg" xmlns:xlink="http://www.w3.org/1999/xlink"><linearGradient id="a"><stop offset="0" stop-color="#00897b"/><stop offset="1" stop-color="#4db6ac"/></linearGradient><linearGradient id="b" gradientUnits="userSpaceOnUse" x1="65.332" x2="102.28" xlink:href="#a" y1="66.78" y2="112.9"/><linearGradient id="c" gradientUnits="userSpaceOnUse" x1="105.19" x2="114.31" xlink:href="#a" y1="109.12" y2="120.51"/><linearGradient id="d"><stop offset="0" stop-color="#9ccc65"/><stop offset="1" stop-color="#00ad51"/></linearGradient><linearGradient id="e" gradientUnits="userSpaceOnUse" x1="3.4949" x2="46.247" xlink:href="#d" y1="103.12" y2="74.729"/><linearGradient id="f" gradientUnits="userSpaceOnUse" x1="10.036" x2="53.343" xlink:href="#d" y1="114.09" y2="85.332"/><linearGradient id="g"><stop offset="0" stop-color="#00ad51"/><stop offset="1" stop-color="#9ccc65"/></linearGradient><linearGradient id="h" gradientUnits="userSpaceOnUse" x1="67.894" x2="119.56" xlink:href="#g" y1="54.756" y2="19.275"/><linearGradient id="i" gradientUnits="userSpaceOnUse" x1="75.464" x2="126.46" xlink:href="#g" y1="65.493" y2="30.474"/><linearGradient id="j" gradientUnits="userSpaceOnUse" x1="61.422" x2="80.69" xlink:href="#g" y1="61.626" y2="111.72"/><linearGradient id="k"><stop offset="0" stop-color="#fffc1f"/><stop offset="1" stop-color="#fcc21b"/></linearGradient><radialGradient id="l" cx="50.306" cy="80.94" gradientTransform="matrix(1.0056 0 0 1.0389 -.0242 -4.7503)" gradientUnits="userSpaceOnUse" r="23.721" xlink:href="#k"/><radialGradient id="m" cx="60.743" cy="50.914" gradientTransform="matrix(1.0056 0 0 1.0389 -.0242 -4.7503)" gradientUnits="userSpaceOnUse" r="20.382"><stop offset="0" stop-color="#fe0"/><stop offset="1" stop-color="#fc9e1b"/></radialGradient><radialGradient id="n" cx="85.906" cy="62.195" gradientTransform="matrix(1.0056 0 0 1.0389 -.0242 -4.7503)" gradientUnits="userSpaceOnUse" r="19.206" xlink:href="#k"/><path d="m110.93 103.2c-.94-1.63-.77-3.65-1-6.41-.56-6.71-.67-13.39-.95-20.1-.27-6.49.44-27.1.48-33.6.01-1.78-5 13.9-5.03 14.81-.1 3.35-1.88 5.8-4.15 8.15-1.39 1.45-3.1 2.2-4.45 3.62-3.19 3.34-6.14 7.45-8.73 11.29-.76 1.12-1.34 2.29-2.43 3.12-1.81 1.39-4.21 2.15-6.29 2.98-2.77 1.11-5.78 1.53-8.4 3.03-1.58.9-2.76 2.15-4.14 3.29-1.4 1.16-2.7 2.1-3.82 3.56-1.74 2.27-3.75 4.31-5.64 6.44-.46.51-.89 1.06-1.37 1.56-.45.46-1.34.86-1.34.86s-29.31 2.15-13.36 3.63c7.24.67 29.63 1.39 36.87 2.11 4.33.43 8.58.9 12.9 1.54 1.98.29 4.55.07 6.56.77 5.53-2.13 10.13-6.13 14.29-10.65z" fill="url(#b)"/><path d="m114 105.74c-.14-.07-.27-.14-.4-.2-1.36-.7-2.17-1.46-2.67-2.33-4.16 4.52-8.76 8.52-14.31 10.66 1.08.37 2.01 1.01 2.59 2.14.09.17.16.36.24.54 6.02-2.06 10.64-6.02 14.55-10.81z" fill="#aeea00"/><path d="m118.3 108.6c-1.17-1.25-2.99-2.19-4.3-2.86-3.91 4.79-8.53 8.75-14.54 10.8.95 2.16 1.35 4.87 3.37 6.25 6.38 4.38 15.04-5.08 16.52-10.96.31-1.24-.19-2.32-1.05-3.23z" fill="url(#c)"/><path d="m106.03 32.23c8.15 10.59 3.04 43.04-20.55 62.41s-56.04 17.77-64.18 7.18 2.34-37.52 25.93-56.89 50.65-23.29 58.8-12.7z" fill="#00695c"/><path d="m27.07 76.6c9.49-2.77 24.29 3.66 24.29 3.66s-6.97 11.65-19.24 15.74c-15.81 5.28-27.78-2.69-27.78-2.69s6.73-12.05 22.73-16.71z" fill="url(#e)"/><path d="m31.56 86.66c5.14-9.9 21.39-17.12 21.39-17.12s3.62 14.62-2.62 27.82c-8.04 17-23.32 20.72-23.32 20.72s-4.11-14.73 4.55-31.42z" fill="url(#f)"/><path d="m89.72 26.3c8.18-7.4 25.86-8.24 25.86-8.24s-1.6 15-11.94 25.09c-13.32 12.98-28.89 10.91-28.89 10.91s1.18-15.29 14.97-27.76z" fill="url(#h)"/><path d="m99.75 39.51c10.87.31 24.4 12.09 24.4 12.09s-11.03 9.89-25.25 10.04c-18.31.19-28.38-12.25-28.38-12.25s10.91-10.4 29.23-9.88z" fill="url(#i)"/><path d="m94.5 70.8c-12.17-14.15-30.16-12.5-30.16-12.5s-.55 1.92-.89 4.97c-3.09-1.22-5.2-1.62-5.2-1.62s-1.05 1.74-2.19 4.65c-2.58-1.57-4.37-2.28-4.37-2.28s-13.06 14.83-7.16 32.76c4.59 13.92 20.86 20.86 20.86 20.86s2.64-4.27 5.01-9.89c5.67 3.01 10.64 4.11 10.64 4.11s2.43-6.13 3.76-13.3c7.61 2.25 14.51 1.83 14.51 1.83s2.42-21.19-4.81-29.59z" fill="url(#j)"/><g fill="#b39ddb"><ellipse cx="85.99" cy="19.14" rx="10" ry="10.33"/><ellipse cx="73.02" cy="24.96" rx="10" ry="10.33"/><ellipse cx="78.66" cy="38.36" rx="10" ry="10.33"/><ellipse cx="91.63" cy="32.54" rx="10" ry="10.33"/></g><ellipse cx="82.33" cy="28.75" fill="#ede7f6" rx="4.15" ry="4.28"/><path d="m34.22 59.22c8.65 4.13 13.42 12.48 10.66 18.64s-12.01 7.81-20.66 3.68c-12.81-6.11-18.21-22.24-18.21-22.24s15.4-6.2 28.21-.08z" fill="#c62828"/><path d="m24.81 69.55c4.52 8.67 12.87 13.08 18.66 9.86s6.82-12.86 2.3-21.52c-6.69-12.84-22.61-17.43-22.61-17.43s-5.04 16.25 1.65 29.09z" fill="#c62828"/><path d="m39.67 58.23c6.94 6.74 8.91 16.22 4.4 21.17s-13.78 3.49-20.72-3.25c-10.28-9.99-10.47-27.07-10.47-27.07s16.51-.84 26.79 9.15z" fill="#ff5252"/><path d="m56.72 32.6c7.8 7.72 9.94 18.48 4.78 24.05s-15.66 3.81-23.46-3.91c-11.56-11.44-11.6-30.79-11.6-30.79s18.72-.79 30.28 10.65z" fill="#f06292"/><path d="m42.95 40.09c1.76 11.01 9.14 18.92 16.5 17.67s11.89-11.19 10.14-22.2c-2.61-16.31-18.04-27.29-18.04-27.29s-11.21 15.51-8.6 31.82z" fill="#f06292"/><path d="m62.91 33.61c5.04 9.87 3.77 20.78-2.82 24.37s-16.02-1.5-21.06-11.37c-7.46-14.63-1.58-33-1.58-33s18 5.37 25.46 20z" fill="#ff80ab"/><path d="m68.23 86.2c3.46-.26 6.18-3.22 6.18-6.86s-2.73-6.61-6.18-6.86l-.48-.5v-.7c2.27-2.71 2.17-6.8-.32-9.37s-6.45-2.68-9.07-.33h-.68l-.48-.5c-.25-3.57-3.12-6.39-6.64-6.39s-6.39 2.82-6.64 6.39l-.48.5h-.68c-2.62-2.34-6.58-2.24-9.07.33s-2.59 6.66-.32 9.37v.7l-.48.5c-3.46.26-6.18 3.22-6.18 6.86 0 3.63 2.73 6.6 6.18 6.86l.48.5v.7c-2.27 2.7-2.16 6.8.32 9.37s6.45 2.68 9.07.33h.68l.48.5c.25 3.57 3.12 6.39 6.64 6.39s6.39-2.82 6.64-6.39l.48-.5h.68c2.62 2.34 6.58 2.24 9.07-.33s2.59-6.66.32-9.37v-.7z" fill="url(#l)"/><path d="m50.56 85.11c-3.08 0-5.58-2.58-5.58-5.77s2.5-5.77 5.58-5.77 5.58 2.58 5.58 5.77c.01 3.18-2.49 5.77-5.58 5.77z" fill="#fffde7"/><path d="m76.24 54.04c2.97-.22 5.31-2.77 5.31-5.89s-2.34-5.68-5.31-5.89l-.41-.43v-.6c1.95-2.32 1.86-5.84-.28-8.05s-5.54-2.3-7.79-.29h-.58l-.41-.43c-.21-3.07-2.68-5.49-5.71-5.49-3.02 0-5.49 2.42-5.71 5.49l-.41.43h-.58c-2.25-2.01-5.65-1.92-7.79.29s-2.23 5.73-.28 8.05v.6l-.41.43c-2.97.22-5.31 2.77-5.31 5.89s2.35 5.67 5.31 5.89l.41.43v.6c-1.95 2.32-1.86 5.84.28 8.05s5.54 2.3 7.79.29h.58l.41.43c.21 3.07 2.68 5.49 5.71 5.49 3.02 0 5.49-2.42 5.71-5.49l.41-.43h.58c2.25 2.01 5.65 1.92 7.79-.29s2.23-5.73.28-8.05v-.6z" fill="url(#m)"/><path d="m61.06 53.1c-2.65 0-4.8-2.22-4.8-4.96s2.15-4.96 4.8-4.96 4.8 2.22 4.8 4.96-2.15 4.96-4.8 4.96z" fill="#fffde7"/><path d="m85.99 11.81c.86 0 1.72.17 2.53.5 3.54 1.44 5.34 5.65 4.02 9.38-.4 1.14-.08 2.41.81 3.22.56.51 1.29.78 2.02.78.43 0 .86-.09 1.27-.28 5.11-2.39 11.34-3.49 15.26-3.98-.83 3.51-2.55 9.02-5.93 14.17-.49.74-.62 1.66-.37 2.52.39 1.28.67 2.73.84 4.3.12 1.06.78 1.97 1.75 2.41 4.37 1.97 8.46 4.77 11.07 6.73-2.47 1.7-6.36 4-11.08 5.52-1.22.39-2.06 1.51-2.08 2.79-.13 6.06-.27 13.47-.12 16.96.08 1.83.14 3.67.2 5.5.17 4.81.34 9.79.75 14.73.05.63.08 1.23.11 1.79.11 2.06.21 4.01 1.28 5.88.82 1.43 2.1 2.57 3.89 3.5l.36.18.05.03c1.06.54 2.66 1.36 3.48 2.25.27.29.32.45.32.45-1.03 4.1-6.28 9.81-10.03 9.81-.68 0-1.29-.19-1.88-.59-.68-.46-1.1-1.69-1.56-2.99-.23-.65-.46-1.33-.76-2l-.05-.11c-.09-.2-.18-.41-.28-.6-.88-1.71-2.32-2.92-4.27-3.6-1.69-.59-3.48-.67-5.06-.75-.76-.04-1.47-.07-2.05-.16-4.66-.69-9.21-1.17-13.04-1.56-1.76-.17-4.42-.36-8.37-.57h-.16c-1.15 0-2.21.66-2.71 1.71-.74 1.56-1.46 2.93-2.04 3.99-2.06-1.12-5.18-3.03-8.23-5.69-.51-.45-1.15-.71-1.83-.74-4.63-.22-9.34-.47-12.37-.7-.08-.01-.16-.01-.23-.01-.76 0-1.5.29-2.05.81-3.76 3.53-7.58 5.59-10.13 6.7-.24-1.97-.42-4.76-.18-8.12.08-1.17-.53-2.29-1.56-2.85-1.72-.93-3.04-1.98-3.91-3.12-.64-.83-1.15-1.87-1.51-3.09s-1.45-2.07-2.71-2.14c-4.61-.25-8.35-1.51-10.71-2.54 2.16-2.73 6.33-7.09 12.88-10.31.95-.47 1.58-1.4 1.67-2.45s-.39-2.07-1.25-2.69c-6.34-4.52-10.25-11.69-12.04-15.63 1.19-.33 2.69-.7 4.4-1 .8-.14 1.51-.6 1.96-1.27.46-.67.62-1.5.46-2.29-.35-1.7-.57-3.22-.71-4.45 1.33.08 3.01.24 4.89.57.17.03.34.04.51.04.66 0 1.31-.22 1.84-.63.66-.51 1.08-1.28 1.15-2.12.18-2.18.49-4.1.79-5.57 1.42.59 3.24 1.43 5.2 2.55.47.27.98.4 1.49.4.76 0 1.51-.29 2.08-.84.96-.92 1.2-2.37.58-3.55-3.47-6.68-4.63-13.97-5.02-17.98 1.45.09 3.36.27 5.5.63.17.03.33.04.5.04.64 0 1.28-.21 1.8-.6.66-.49 1.08-1.23 1.18-2.05.25-2.15.6-4.03.91-5.46 1.47.61 3.38 1.48 5.48 2.65.45.25.96.38 1.46.38.33 0 .65-.05.97-.16.8-.27 1.45-.88 1.79-1.66 1.06-2.47 2.17-4.55 3.05-6.06 2.33 2.04 5.91 5.55 8.94 10.12.56.84 1.5 1.34 2.5 1.34.11 0 .23-.01.35-.02 1.12-.13 2.08-.88 2.47-1.94 0-.01.01-.02.01-.02 1.08-2.78 3.62-4.58 6.49-4.57.86 0 1.72.17 2.53.5.36.15.75.22 1.13.22.41 0 .81-.08 1.2-.25.74-.32 1.32-.93 1.61-1.68 1.07-2.8 3.62-4.61 6.5-4.61m-34.44-3.54s-2.65 3.68-5.08 9.33c-5.01-2.8-9.02-4-9.02-4s-1.18 3.69-1.81 9.08c-3.93-.67-7.08-.75-8.45-.75-.48 0-.75.01-.75.01s.03 11.81 5.55 22.43c-4.83-2.76-8.82-3.92-8.82-3.92s-1.19 3.86-1.65 9.29c-3.45-.59-6.27-.68-7.68-.68-.62 0-.96.02-.96.02s.04 3.43 1.01 8.11c-4.69.82-7.88 2.1-7.88 2.1s4.3 12.8 14.29 19.93c-11.15 5.48-15.97 14.1-15.97 14.1s5.94 3.94 14.96 4.44c.45 1.53 1.11 2.9 2.01 4.06 1.16 1.5 2.82 2.82 4.86 3.92-.52 7.4.85 12.35.85 12.35s7.33-1.79 14.51-8.54c2.97.23 7.52.47 12.46.71 5.63 4.93 11.4 7.38 11.4 7.38s1.67-2.71 3.55-6.65c3.42.19 6.35.38 8.24.56 4.33.43 8.58.9 12.9 1.54 1.98.29 4.55.07 6.56.77 1.08.37 2.01 1.01 2.59 2.14.09.17.16.36.24.54.95 2.16 1.35 4.87 3.37 6.25 1.14.78 2.35 1.12 3.58 1.12 5.66 0 11.73-7.25 12.94-12.08.31-1.25-.19-2.33-1.05-3.24-1.17-1.25-2.99-2.19-4.3-2.86-.14-.07-.27-.14-.4-.2-1.36-.7-2.17-1.46-2.67-2.33-.94-1.63-.77-3.65-1-6.41-.56-6.71-.67-13.39-.95-20.1-.13-3.24-.02-10.01.12-16.77 8.96-2.87 15.04-8.32 15.04-8.32s-6.85-5.96-14.72-9.51c-.19-1.75-.51-3.37-.95-4.84 6.03-9.16 7.1-19.18 7.1-19.18s-11.47.55-20.21 4.63c1.86-5.25-.65-11.1-5.71-13.16-1.2-.49-2.44-.72-3.66-.72-3.99 0-7.75 2.48-9.31 6.54-1.2-.49-2.44-.72-3.66-.72-3.99 0-7.75 2.48-9.31 6.54v.01c-5.33-8.06-12.16-12.92-12.16-12.92z" fill="#424242" opacity=".2"/><path d="m100.67 65.42c2.8-.21 5.01-2.61 5.01-5.55s-2.21-5.35-5.01-5.55l-.39-.4v-.57c1.84-2.19 1.75-5.5-.26-7.58s-5.22-2.17-7.34-.27h-.55l-.39-.4c-.2-2.89-2.53-5.17-5.38-5.17s-5.18 2.28-5.38 5.17l-.39.4h-.55c-2.12-1.9-5.33-1.81-7.34.27s-2.1 5.39-.26 7.58v.57l-.39.4c-2.8.21-5.01 2.61-5.01 5.55s2.21 5.35 5.01 5.55l.39.4v.57c-1.84 2.19-1.75 5.5.26 7.58s5.22 2.17 7.34.27h.55l.39.4c.2 2.89 2.53 5.17 5.38 5.17s5.18-2.28 5.38-5.17l.39-.4h.55c2.12 1.9 5.33 1.81 7.34-.27s2.1-5.39.26-7.58v-.57z" fill="url(#n)"/><path d="m86.36 64.53c-2.5 0-4.52-2.09-4.52-4.67s2.02-4.67 4.52-4.67 4.52 2.09 4.52 4.67-2.02 4.67-4.52 4.67z" fill="#fffde7"/></svg>