<svg height="64" viewBox="0 0 64 64" width="64" xmlns="http://www.w3.org/2000/svg"><g fill="none" fill-rule="evenodd"><path d="m48.8063492 49.5390579 6.25 1.4303348-7.5-18.9130435-7.5 18.9130435 6.25-1.4303348v11.5172913h2.5z" fill="#4796e7" transform="matrix(.70710678 -.70710678 .70710678 .70710678 -18.991233 47.263107)"/><path d="m17.356 26.936c-1.5200076 3.792019-3.0399924 5.6959999-4.56 5.712-1.8400092.0160001-3.18399576-.9359904-4.032-2.856-.65600328-1.4720074-.99199992-3.3999881-1.008-5.784-.01600008-2.6880134.3359964-5.135989 1.056-7.344.83200416-2.5760129 1.9599929-3.9439992 3.384-4.104.208001-.0160001.407999-.024.6-.024 1.3280066 0 2.3519964.5919941 3.072 1.776.5280026.8960045.9759982 2.3199902 1.344 4.272.2720014.7840039.408 1.2639991.408 1.44 0 .5280026-.3279967.9359986-.984 1.224-.1440007.0640003-.311999.096-.504.096-.4640023 0-.9759972-.1519985-1.536-.456-.6560033-.3520018-.984-.7359979-.984-1.152 0-.0640003.1119989-.3759972.336-.936-.0320002-.7040035-.1599989-1.3719968-.384-2.004s-.4799986-.9799997-.768-1.044c-.4480022-.1120006-.8399983.7759906-1.176 2.664-.2880014 1.5680078-.4639997 3.2959906-.528 5.184-.0480002 1.4240071.031999 2.7439939.24 3.96.2400012 1.392007.5999976 2.1359995 1.08 2.232.2880014.0480002.631998-.3119962 1.032-1.08.3840019-.7040035.7039987-1.5359952.96-2.496-.0320002-.1600008-.048-.3119993-.048-.456 0-.9440047.5759942-1.416 1.728-1.416.2560013 0 .5119987.0239998.768.072.7840039.1600008 1.176.5519969 1.176 1.176 0 .5120026-.2239978.9599981-.672 1.344zm5.928 5.184c-.3200016.608003-.9119957.912-1.776.912-.800004 0-1.3599984-.2719973-1.68-.816-.0960005-.1600008-.144-.335999-.144-.528 0-.1600008.0559994-.4239982.168-.792s.168-.6719988.168-.912l-.096-15.504v-1.296c.0480002-.208001.271998-.3799993.672-.516s.8239978-.204 1.272-.204c.6560033 0 1.0719991.1199988 1.248.36s.264.4879987.264.744c0 .1760009-.0639994.467998-.192.876s-.192.7399987-.192.996v14.4c0 .2400012.0679993.555998.204.948s.204.6759991.204.852-.0399996.3359993-.12.48zm5.616-18.12c.0480002.0480002.072.1279994.072.24 0 .1440007-.0479995.3919982-.144.744-.1120006.4320022-.1839998.7279992-.216.888s-.0160003.5119973.048 1.056c0 .3360017-.099999.5559995-.3.66s-.4519985.156-.756.156c-.4320022 0-.8719978-.0879991-1.32-.264-.5440027-.2240011-.816-.5199982-.816-.888 0-.1120006.0479995-.267999.144-.468s.1519999-.3639994.168-.492c.0320002-.1280006.0320002-.4479974 0-.96-.0320002-.400002.047999-.6719993.24-.816.2560013-.192001.7119967-.288 1.368-.288.7200036 0 1.2239986.1439986 1.512.432zm.312 5.856c0 .2240011-.1239988.5719976-.372 1.044s-.372.8599985-.372 1.164v7.056c0 .3200016.0879991.7719971.264 1.356s.264.9879989.264 1.212c0 .3200016-.1279987.5599992-.384.72-.400002.2560013-.8319977.384-1.296.384-.608003 0-1.0399987-.2079979-1.296-.624-.3360017-.5120026-.504-2.0399873-.504-4.584 0-.608003.0119999-1.5559936.036-2.844s.036-2.227997.036-2.82c0-.2240011-.0239998-.5159982-.072-.876s-.072-.6199992-.072-.78c0-.5280026.1919981-.9839981.576-1.368.1600008-.1600008.4559978-.24.888-.24s.8639978.0679993 1.296.204.7079994.2919991.828.468.18.3519991.18.528zm9.816 8.16c-.0160001.3520018-.1679986.7119982-.456 1.08-.4480022.5280026-.7359994.9279986-.864 1.2-1.008005 1.5360077-2.0479946 2.304-3.12 2.304-1.2640063 0-2.2479965-.6399936-2.952-1.92-.6240031-1.1680058-.936-2.6399911-.936-4.416 0-2.0320102.3839962-3.7999925 1.152-5.304.8480042-1.6640083 1.9439933-2.496 3.288-2.496 1.0560053 0 1.9119967.5839942 2.568 1.752.5440027.992005.816 2.0719942.816 3.24 0 .3200016-.0239998.5999988-.072.84-.1120006.5440027-.567996.816-1.368.816-.6240031 0-1.1039983-.1759982-1.44-.528-.1600008-.1760009-.24-.5839968-.24-1.224 0-.1600008.0079999-.3919985.024-.696v-.696c0-.7200036-.1279987-1.08-.384-1.08-.2720014 0-.5599985.7879921-.864 2.364s-.456 3.0519931-.456 4.428c0 1.600008.2399976 2.4.72 2.4.6240031 0 1.0879985-.503995 1.392-1.512.1280006-.1440007.1999999-.4319978.216-.864 0-.3840019.095999-.6359994.288-.756s.4719982-.18.84-.18c.4800024 0 .8959982.103999 1.248.312.4160021.2400012.6160001.5519981.6.936zm13.128 2.112c.0160001.1120006.024.2239994.024.336 0 .9600048-.5359946 1.6079983-1.608 1.944-.208001.0640003-.3919992.096-.552.096-.2880014 0-.5519988-.1359986-.792-.408-.3680018-.400002-.5919996-.6239998-.672-.672l-4.32-3.024v2.016c0 .1440007.0439996.3239989.132.54s.132.3799994.132.492c0 .1760009-.0879991.359999-.264.552-.400002.4160021-.9759962.624-1.728.624-.7200036 0-1.183999-.2399976-1.392-.72-.0960005-.2240011-.1280002-.4559988-.096-.696.0640003-.4160021.096-.6959993.096-.84v-15.792c-.0160001-.2880014.0159996-.7199971.096-1.296.1440007-.3520018.5839963-.528 1.32-.528.9600048 0 1.5759986.1759982 1.848.528.1440007.192001.216.3999989.216.624 0 .1760009-.0599994.4479982-.18.816s-.18.655999-.18.864c-.0320002.9280046-.0320002 3.5439785 0 7.848.8960045-.8640043 2.047993-1.991993 3.456-3.384.192001-.192001.4399985-.5359975.744-1.032.1760009-.2880014.4399982-.4799995.792-.576.0960005-.0320002.2079994-.048.336-.048.4640023 0 .9399976.1759982 1.428.528s.732.727998.732 1.128c0 .2240011-.1599984.4959984-.48.816s-.6399984.6239986-.96.912l-3.984 4.128 4.272 3.072c.0320002.0320002.351997.1599989.96.384.3520018.1440007.5599997.3999982.624.768z" fill="#d650c7"/></g></svg>